<svg xmlns="http://www.w3.org/2000/svg" width="1920" height="1920" style="shape-rendering:geometricPrecision;text-rendering:geometricPrecision;image-rendering:optimizeQuality;fill-rule:evenodd;clip-rule:evenodd"><path fill="#fefffe" d="M1077.5 196.5c72.88-2.15 145.21 3.016 217 15.5 9.37.224 18.7.891 28 2 18.3 5.46 36.64 10.793 55 16a23523.05 23523.05 0 0 1 58 23c36.65 17.506 70.65 39.34 102 65.5l33 33c31.63 37.314 55.13 79.314 70.5 126 14.81 46.987 21.97 95.154 21.5 144.5.37 56.37-9.13 110.87-28.5 163.5-8.93 20.844-19.76 40.511-32.5 59-46.08 57.84-101.08 68.34-165 31.5a311.517 311.517 0 0 0-25-16.5c-14-11.005-27.67-22.339-41-34a4261.64 4261.64 0 0 1-135-134c-6.67-5.667-13.33-11.333-20-17a150.049 150.049 0 0 1-14-15 80.006 80.006 0 0 1-18-16 1096.41 1096.41 0 0 1-43-36 594.396 594.396 0 0 1-36-27c-15.3-9.987-30.63-19.987-46-30-10.69-6.012-21.36-12.012-32-18-58.727-30.014-121.06-48.347-187-55-54.842-3.736-108.675 1.264-161.5 15a553.269 553.269 0 0 1-34.5 10 1793.736 1793.736 0 0 0-35 13c-60.039 26.075-116.372 58.408-169 97a24323.026 24323.026 0 0 1-90 70.5c-5.104 3.47-10.604 5.97-16.5 7.5-5.745.421-8.245-2.246-7.5-8a97.877 97.877 0 0 1 7-22.5 634.552 634.552 0 0 0 16-29.5c38.551-58.541 82.885-112.208 133-161 62.731-60.905 131.397-114.072 206-159.5 24.326-12.994 48.659-25.994 73-39 51.419-24.136 104.586-43.302 159.5-57.5a1656.2 1656.2 0 0 1 157.5-17Z" style="opacity:.986"/><path fill="#fefffe" d="M694.5 521.5a169.724 169.724 0 0 1 36 2.5c14.419 3.99 21.085 13.49 20 28.5a246.028 246.028 0 0 1-3.5 24 405.278 405.278 0 0 1-33.5 67.5 3633.258 3633.258 0 0 1-39 57.5c-38.706 50.039-83.372 94.039-134 132-30.735 22.203-63.401 41.37-98 57.5a205.597 205.597 0 0 0-21.5 7.5 865.774 865.774 0 0 1-26.5 6.5c-13.755 1.943-26.755-.224-39-6.5a32.285 32.285 0 0 1-7.5-9c-3.302-18.033-2.969-36.033 1-54 25.014-77.132 66.847-143.465 125.5-199a720.291 720.291 0 0 1 85-63.5c34.553-20.181 71.053-35.681 109.5-46.5a108.615 108.615 0 0 1 24.5-3.5c.556-.383.889-.883 1-1.5Z" style="opacity:.97"/><path fill="#fefffe" d="M1046.5 670.5c32.1.407 63.44 5.24 94 14.5 74.76 26.755 121.92 78.589 141.5 155.5 4.42 30.976 4.59 61.976.5 93-9.07 46.795-28.4 88.79-58 126-32.36 36.74-72.03 62.24-119 76.5a2730.22 2730.22 0 0 1-48 11 805.101 805.101 0 0 1-98 0 1729.794 1729.794 0 0 0-41-9c-117.832-35.48-162.998-113.31-135.5-233.5 25.352-86.294 75.852-153.461 151.5-201.5a380.307 380.307 0 0 1 39-18 902.312 902.312 0 0 0 26.5-7.5 270.498 270.498 0 0 1 45.5-5.5c.56-.383.89-.883 1-1.5Z" style="opacity:.985"/><path fill="#fefffe" d="M253.5 807.5c5.571.866 10.237 3.533 14 8 1.7 2.883 3.7 5.55 6 8 22.142 41.08 44.475 82.08 67 123a1978.974 1978.974 0 0 0 41 64 1592.759 1592.759 0 0 1 30.5 41 2982.438 2982.438 0 0 1 32.5 38 1466.398 1466.398 0 0 1 39 39c5.575 2.91 10.242 6.91 14 12a1825.246 1825.246 0 0 1 34 27c93.224 65.59 197.224 97.25 312 95 42.874 0 85.374-3.33 127.5-10 48.18-9.04 95.68-20.04 142.5-33a1899.398 1899.398 0 0 0 187-66c20.62-9.87 41.29-19.53 62-29 29.61-16.48 59.28-32.81 89-49a95.84 95.84 0 0 1 10-7.5c22.01-12.24 43.68-24.9 65-38 6.98-3.09 13.98-6.26 21-9.5 9.63-3.18 19.46-5.51 29.5-7 13.07 1.04 24.07 6.37 33 16 12.04 18.6 18.54 38.94 19.5 61 1.46 28.07.63 56.07-2.5 84-14.66 84.95-44.32 164.28-89 238a751.057 751.057 0 0 1-70 94 2058.006 2058.006 0 0 0-38.5 38c-52.73 46.78-113.06 81.11-181 103-74.65 22.2-150.99 30.54-229 25-149.611-11.87-286.611-58.71-411-140.5-68.874-48.04-128.874-105.54-180-172.5-92.326-126.03-151.826-266.37-178.5-421-.833-42.337-.667-84.671.5-127a514.367 514.367 0 0 0 3-4Z" style="opacity:.986"/></svg>